<?xml version="1.0" encoding="utf-8"?>
<!-- Generator: Adobe Illustrator 26.0.1, SVG Export Plug-In . SVG Version: 6.00 Build 0)  -->
<svg version="1.1" id="Layer_1" xmlns="http://www.w3.org/2000/svg" xmlns:xlink="http://www.w3.org/1999/xlink" x="0px" y="0px"
	 viewBox="0 0 95.56 80" style="enable-background:new 0 0 95.56 80;" xml:space="preserve">
<style type="text/css">
	.st0{fill:none;stroke:#010101;stroke-width:1.1136;stroke-linecap:round;stroke-linejoin:round;stroke-miterlimit:10;}
	.st1{fill:#010101;}
</style>
<line class="st0" x1="50.25" y1="47.31" x2="50.25" y2="28.03"/>
<path class="st0" d="M14.06,28.03v37.54c0,0.46,0.37,0.83,0.83,0.83h25.09"/>
<path class="st0" d="M48.36,68.69v0.68c0,0.66-0.53,1.19-1.19,1.19H17.14c-0.66,0-1.19-0.53-1.19-1.19V66.4h24.02"/>
<path class="st0" d="M18.31,15.04h-2.16c-5.93,0-10.74,4.81-10.74,10.74v31.71h8.64"/>
<path class="st0" d="M58.97,48.01V25.77c0-5.93-4.81-10.74-10.74-10.74h-2.08"/>
<polygon class="st0" points="32.32,21.6 20.64,8.53 44,8.53 "/>
<polyline class="st0" points="44,8.53 46.16,15.04 32.32,21.6 18.31,15.04 20.64,8.53 "/>
<g>
	<path class="st0" d="M14.06,57.48H6.57v3.17c0,0.66,0.53,1.19,1.19,1.19h6.29V57.48z"/>
</g>
<line class="st0" x1="36.35" y1="23.71" x2="36.35" y2="34.04"/>
<line class="st0" x1="36.35" y1="36.55" x2="36.35" y2="38.32"/>
<line class="st0" x1="27.88" y1="23.71" x2="27.88" y2="34.04"/>
<line class="st0" x1="27.88" y1="36.55" x2="27.88" y2="38.32"/>
<path class="st0" d="M41.07,55.1c-0.91-1.77-2.76-2.96-4.86-2.96H28.1c-2.78,0-5.12,2.09-5.43,4.85l-1.06,9.41h18.37"/>
<path class="st1" d="M74.96,67.71c-1.75,0.18-3.54,0.34-5.37,0.46c-0.77,0.05-1.6,0.08-2.47,0.11c0.51-1.06,1.05-1.92,1.62-2.58
	c-0.28-0.1-0.55-0.19-0.83-0.29c-0.61,0.77-1.2,1.72-1.73,2.9c-9.67,0.25-23.36-0.42-24.72-0.55c-0.82-0.1-0.83-0.6-0.82-0.75
	c0.01-0.04,0-0.08,0-0.13l-0.2-1.17c-0.12-0.85-0.11-1.62-0.04-2.27c2.76,0.77,12.3,0.97,20.79,0.97c1.37,0,2.71-0.01,3.99-0.01
	c-0.73-0.27-1.47-0.55-2.2-0.83c-1.41,0-2.86,0-4.33-0.01c-9.94-0.05-16.33-0.39-18.11-0.96c0.1-0.45,0.21-0.8,0.3-1.03
	c0.04,0.01,0.09,0.02,0.14,0.04c1.21,0.32,3.58,0.53,6.52,0.67c0.05,0,0.09,0,0.14,0.01c0.13,0.01,0.27,0.01,0.41,0.02
	c0.1,0,0.2,0.01,0.3,0.01c0.1,0,0.2,0.01,0.3,0.01c0.15,0.01,0.3,0.01,0.46,0.02c0.06,0,0.12,0,0.18,0.01
	c0.21,0.01,0.43,0.02,0.65,0.02c0.01,0,0.01,0,0.02,0c3.21,0.11,6.85,0.15,10.36,0.16c-0.73-0.29-1.45-0.57-2.15-0.85
	c-3.25-0.02-6.52-0.08-9.34-0.19c-1.62-2.8-4.23-5.04-7.25-6.21c0.33-1.02,0.73-1.6,1.13-1.57c0.07,0.01,0.18,0.07,0.28,0.12
	l0.51,0.28c1.03,0.58,2.03,1.14,3.08,1.59c0.02-0.21,0.06-0.39,0.1-0.48l0.07-0.37c-0.96-0.43-1.88-0.94-2.83-1.48l-0.51-0.28
	c-0.15-0.09-0.36-0.2-0.62-0.22c-1.45-0.12-2.13,2.12-2.44,4.02c-0.25,1.5-0.27,2.79-0.08,3.93c-0.01,0.01-0.01,0.02-0.02,0.02
	c-0.04,0.08-1.04,2.1-0.62,4.99l0.19,1.13c-0.01,0.13,0,0.41,0.14,0.7c0.16,0.36,0.54,0.8,1.43,0.92
	c1.17,0.11,11.15,0.61,20.07,0.61c2.97,0,5.83-0.06,8.21-0.2c2.46-0.16,4.87-0.38,7.18-0.65l0.26-0.03c0.02,0,0.05-0.01,0.07-0.01
	C76.42,68.13,75.69,67.92,74.96,67.71z M41.14,57.05c0.05-0.33,0.12-0.64,0.18-0.93c2.64,1.04,4.94,2.95,6.46,5.35
	c-3.13-0.14-5.6-0.36-6.71-0.69C40.88,59.71,40.91,58.49,41.14,57.05z"/>
<path class="st1" d="M90.12,69.35c0.05-0.2,0.17-0.53,0.3-0.91c0.44-1.24,0.77-2.24,0.75-2.8c-0.02-0.54-0.11-0.99-0.29-1.37
	l-0.01-0.03c-0.07-0.16-0.2-0.43-0.45-0.57c-0.01-0.01-0.01-0.02-0.02-0.03c-0.48-0.59-1.02-0.93-1.59-1.28l-0.1-0.06
	c-0.61-0.38-1.26-0.76-1.94-1.12c-0.26-0.14-0.52-0.28-0.77-0.43c-0.74-0.42-1.48-0.88-2.21-1.37c0.01-0.01,0.02-0.02,0.02-0.04
	l0.03-0.04c0.04-0.06,0.08-0.11,0.1-0.14c0.11-0.14,0.18-0.25,0.26-0.49c0.12-0.4,0.1-0.8-0.06-1.12c-0.19-0.39-0.5-0.66-0.89-0.76
	c-0.48-0.13-1.08,0.01-1.6,0.36c-0.17,0.11-0.31,0.22-0.46,0.33c-0.46-0.36-0.91-0.74-1.37-1.14c0.28-0.3,0.52-0.65,0.58-1.08
	c0.12-0.89-0.49-1.76-1.33-1.9c-0.64-0.11-1.22,0.17-1.72,0.52l-0.8-1.09c0.45-0.39,0.91-0.86,0.97-1.51
	c0.04-0.42-0.11-0.82-0.43-1.14c-0.36-0.37-0.91-0.56-1.42-0.52c-0.42,0.04-0.81,0.19-1.16,0.39l-2.33-3.19
	c-0.17-0.23-0.68-0.92-1.4-0.78c-0.3,0.06-0.52,0.25-0.68,0.41c-0.6,0.61-1.01,1.4-1.16,2.24c-0.17,0.01-0.33,0.02-0.5,0.05
	c-0.49,0.07-0.97,0.19-1.43,0.3c-0.33,0.08-0.68,0.17-1.02,0.23c-1.82,0.34-3.84,0.05-5.67-0.81c-2.18-1.02-3.65-2.73-5.19-4.54
	l-0.38-0.44c-0.11-0.13-0.27-0.32-0.5-0.42c-1.32-0.61-2.73,1.26-3.68,2.94c-0.75,1.32-1.21,2.52-1.43,3.66
	c-0.01,0.01-0.02,0.01-0.02,0.02c-0.07,0.06-1.7,1.61-2.3,4.47l-0.21,1.13c-0.05,0.12-0.14,0.38-0.11,0.71
	c0.03,0.39,0.23,0.94,1.03,1.35c1.06,0.5,10.25,4.41,18.63,7.48c2.79,1.02,5.5,1.96,7.77,2.64c2.36,0.7,4.71,1.33,6.96,1.86
	l0.26,0.06c2.08,0.5,4.24,1.01,6.41,1.14l0.16,0.01C88.6,70.56,89.76,70.64,90.12,69.35z M82.13,57.8c0.31-0.21,0.68-0.31,0.93-0.24
	c0.15,0.04,0.27,0.15,0.36,0.33c0.07,0.14,0.07,0.34,0.01,0.54c-0.03,0.12-0.05,0.14-0.12,0.23c-0.04,0.05-0.08,0.11-0.14,0.19
	l-0.03,0.04c0,0.01-0.01,0.01-0.01,0.02c-0.42-0.3-0.84-0.6-1.25-0.92C81.96,57.92,82.04,57.86,82.13,57.8z M79.24,56.91
	c0.42,0.36,0.83,0.71,1.25,1.05c-0.11,0.07-0.22,0.13-0.35,0.2c-0.33,0.17-0.75,0.2-1.04,0.08c-0.17-0.07-0.28-0.18-0.33-0.34
	C78.65,57.56,78.81,57.32,79.24,56.91z M78.96,54.14c0.41,0.07,0.72,0.54,0.66,0.99c-0.03,0.23-0.18,0.44-0.39,0.65
	c-0.45-0.4-0.9-0.83-1.36-1.26C78.22,54.27,78.6,54.08,78.96,54.14z M76.63,54.48c-0.39,0.33-0.79,0.63-1.22,0.67
	c-0.22,0.02-0.48-0.1-0.62-0.3c-0.07-0.09-0.13-0.24-0.06-0.39c0.06-0.14,0.21-0.26,0.35-0.39l0.63-0.54
	C76.01,53.86,76.32,54.17,76.63,54.48z M75.78,50.41c0.27-0.02,0.58,0.09,0.77,0.28c0.1,0.1,0.21,0.27,0.19,0.49
	c-0.03,0.34-0.32,0.64-0.64,0.92l-1.06-1.45C75.28,50.53,75.53,50.44,75.78,50.41z M70.74,47.03c0.04-0.04,0.16-0.16,0.25-0.18
	c0.07-0.01,0.24,0.03,0.55,0.45l1.99,2.73c-1.09-0.79-2.39-1.26-3.69-1.35C69.98,48.06,70.29,47.48,70.74,47.03z M53.93,43.8
	c0.07,0.03,0.15,0.12,0.22,0.21l0.38,0.44c1.61,1.88,3.13,3.66,5.48,4.76c1.99,0.93,4.19,1.24,6.18,0.88
	c0.36-0.07,0.72-0.16,1.07-0.24c0.46-0.11,0.9-0.22,1.34-0.28c1.55-0.21,3.19,0.22,4.5,1.19c0.06,0.05,0.12,0.1,0.18,0.15
	l-1.45,1.13l0.5,0.64l1.53-1.19c0.12,0.13,0.23,0.27,0.35,0.41c0.17,0.21,0.35,0.42,0.54,0.63c0.13,0.14,0.26,0.27,0.39,0.41
	l-0.6,0.52c-0.19,0.16-0.43,0.37-0.56,0.68c-0.17,0.39-0.12,0.83,0.15,1.2c0.31,0.43,0.86,0.68,1.37,0.63
	c0.68-0.07,1.23-0.5,1.72-0.91c0.47,0.45,0.94,0.89,1.41,1.32c-0.46,0.45-0.9,1.02-0.64,1.79c0.13,0.38,0.41,0.67,0.8,0.83
	c0.52,0.21,1.18,0.17,1.72-0.11c0.25-0.13,0.45-0.25,0.65-0.39c0.5,0.38,0.99,0.75,1.49,1.1c-0.23,0.31-0.47,0.59-0.72,0.81
	l0.52,0.63c0.32-0.27,0.61-0.61,0.87-0.97c0.75,0.51,1.51,0.98,2.27,1.41c0.26,0.15,0.53,0.3,0.79,0.44
	c0.66,0.35,1.29,0.72,1.89,1.09l0.1,0.06c0.36,0.23,0.67,0.42,0.95,0.66c-0.03,0.01-0.06,0.02-0.09,0.02
	c-0.28,0.05-0.55,0.07-0.78,0.06c-2.12-0.13-4.25-0.76-6.31-1.38l-0.23-0.07l0,0c0,0,0,0,0,0c-0.02-0.01-0.05-0.02-0.08-0.02
	c-0.01,0-0.02-0.01-0.03-0.01c-1.94-0.59-15.89-5.44-24.8-9.12c-0.56-3.19-2.24-6.18-4.67-8.32C52.98,44.05,53.56,43.64,53.93,43.8z
	 M51.34,46.39c0.17-0.29,0.33-0.56,0.49-0.81c2.12,1.89,3.62,4.47,4.22,7.24c-2.89-1.21-5.13-2.27-6.06-2.96
	C50.18,48.8,50.62,47.66,51.34,46.39z M49.48,50.54c0.04,0.03,0.08,0.05,0.12,0.08c1.03,0.71,3.17,1.73,5.89,2.88
	c0.04,0.02,0.09,0.04,0.13,0.06c0.12,0.05,0.25,0.11,0.38,0.16c0.09,0.04,0.19,0.08,0.28,0.12c0.09,0.04,0.18,0.08,0.28,0.11
	c0.14,0.06,0.28,0.12,0.42,0.17c0.05,0.02,0.11,0.04,0.16,0.07c0.2,0.08,0.4,0.16,0.6,0.24c0,0,0.01,0,0.01,0.01
	c9.42,3.82,23.1,8.51,23.91,8.74l0.22,0.07c2.11,0.63,4.29,1.27,6.5,1.41c0.31,0.02,0.64-0.01,1-0.07c0.06-0.01,0.14-0.03,0.22-0.06
	c0.02-0.01,0.04-0.01,0.06-0.02c0,0,0.01,0,0.01,0c0.03-0.01,0.06-0.02,0.09-0.02c0.01,0,0.01,0,0.02-0.01
	c0.03-0.01,0.06-0.02,0.09-0.02c0,0,0.01,0,0.01,0c0.05-0.01,0.1-0.02,0.14-0.03c0.03,0.05,0.06,0.12,0.08,0.16l0.02,0.03
	c0.11,0.25,0.18,0.55,0.2,0.9c-0.15,0.02-0.3,0.06-0.44,0.1c-0.08,0.02-0.16,0.04-0.22,0.05c-0.28,0.05-1.1,0.1-1.35,0.09
	c-2.17-0.15-4.35-0.8-6.46-1.43l-0.23-0.07c-0.86-0.24-8.35-2.82-16.1-5.71c-9.32-3.48-15.2-5.99-16.67-7.14
	C49.09,51.02,49.32,50.73,49.48,50.54z M47.94,56.56c-0.73-0.38-0.57-0.85-0.51-0.98c0.02-0.04,0.03-0.08,0.04-0.12l0.22-1.17
	c0.18-0.84,0.45-1.55,0.75-2.14c2.32,1.68,11.21,5.15,19.18,8.07c2.6,0.95,5.1,1.85,7.24,2.6c-1.21,0.45-2.51,1.37-3.89,2.77
	C61.79,62.49,49.18,57.14,47.94,56.56z M87.81,69.67l-0.16-0.01c-2.1-0.12-4.21-0.63-6.26-1.12l-0.26-0.06
	c-2.24-0.54-4.57-1.16-6.92-1.85c-0.74-0.22-1.53-0.47-2.35-0.74c1.64-1.59,3.12-2.44,4.4-2.53l0-0.04c2.85,1,4.83,1.67,5.13,1.75
	l0.23,0.07c2.15,0.64,4.38,1.31,6.64,1.46c0.34,0.02,1.24-0.04,1.56-0.1c0.08-0.01,0.18-0.04,0.29-0.07
	c0.03-0.01,0.07-0.02,0.1-0.03c-0.15,0.55-0.39,1.24-0.57,1.76c-0.14,0.4-0.26,0.74-0.32,0.96C89.15,69.7,88.77,69.73,87.81,69.67z"
	/>
</svg>
