<?xml version="1.0" encoding="utf-8"?>
<!-- Generator: Adobe Illustrator 26.0.1, SVG Export Plug-In . SVG Version: 6.00 Build 0)  -->
<svg version="1.1" id="Layer_1" xmlns="http://www.w3.org/2000/svg" xmlns:xlink="http://www.w3.org/1999/xlink" x="0px" y="0px"
	 viewBox="0 0 80 80" style="enable-background:new 0 0 80 80;" xml:space="preserve">
<style type="text/css">
	.st0{fill:#24C7A4;}
	.st1{fill:none;stroke:#FFFFFF;stroke-width:0.8467;stroke-linecap:round;stroke-linejoin:round;stroke-miterlimit:10;}
	.st2{fill:#FFFFFF;}
</style>
<path class="st0" d="M40,80L40,80C17.9,80,0,62.1,0,40l0,0C0,17.9,17.9,0,40,0l0,0c22.1,0,40,17.9,40,40l0,0C80,62.1,62.1,80,40,80z
	"/>
<g>
	<path class="st1" d="M25.4,30.3v28.9c0,0.4,0.3,0.6,0.6,0.6h26.6c0.4,0,0.6-0.3,0.6-0.6V30.3"/>
	<path class="st1" d="M50.9,63.1H27.7c-0.5,0-0.9-0.4-0.9-0.9v-2.3h24.9v2.3C51.8,62.7,51.4,63.1,50.9,63.1z"/>
	<path class="st1" d="M28.6,20.3H27c-4.6,0-8.3,3.7-8.3,8.3V53h6.6"/>
	<path class="st1" d="M53.2,53h6.7V28.6c0-4.6-3.7-8.3-8.3-8.3H50"/>
	<polygon class="st1" points="39.4,25.4 30.4,15.3 48.4,15.3 	"/>
	<polyline class="st1" points="48.4,15.3 50.1,20.3 39.4,25.4 28.6,20.3 30.4,15.3 	"/>
	<g>
		<path class="st1" d="M25.4,53h-5.8v2.4c0,0.5,0.4,0.9,0.9,0.9h4.8V53H25.4z"/>
		<path class="st1" d="M53.2,53v3.4h5c0.5,0,0.9-0.4,0.9-0.9V53H53.2z"/>
	</g>
	<line class="st1" x1="42.5" y1="27" x2="42.5" y2="35"/>
	<line class="st1" x1="42.5" y1="36.9" x2="42.5" y2="38.3"/>
	<line class="st1" x1="36" y1="27" x2="36" y2="35"/>
	<line class="st1" x1="36" y1="36.9" x2="36" y2="38.3"/>
	<path class="st1" d="M42.4,48.9h-6.2c-2.1,0-3.9,1.6-4.2,3.7l-0.8,7.2h16.2l-0.8-7.2C46.4,50.5,44.6,48.9,42.4,48.9z"/>
</g>
<path class="st0" d="M67.7,63.3c0-1,0-1.8-0.2-2.2s-0.3-0.7-0.6-0.9l0,0c-0.1-0.1-0.3-0.3-0.5-0.3l0,0c-0.5-0.3-1-0.4-1.5-0.5h-0.1
	c-0.5-0.1-1.1-0.2-1.7-0.3c-0.2,0-0.4-0.1-0.7-0.1c-0.6-0.1-1.3-0.2-2-0.4l0,0l0,0c0-0.1,0-0.1,0-0.1c0-0.1,0.1-0.2,0.1-0.4
	c0-0.3-0.1-0.6-0.3-0.8S59.7,57,59.4,57c-0.4,0-0.8,0.3-1.1,0.7c-0.1,0.1-0.2,0.2-0.2,0.4c-0.4-0.1-0.9-0.3-1.3-0.5
	c0.1-0.3,0.2-0.6,0.1-0.9c-0.1-0.7-0.8-1.1-1.5-1c-0.5,0.1-0.8,0.4-1.1,0.8l-0.9-0.6c0.2-0.4,0.4-0.9,0.3-1.3
	c-0.1-0.3-0.3-0.6-0.6-0.7c-0.4-0.2-0.8-0.2-1.2,0c-0.3,0.1-0.5,0.4-0.7,0.6l-2.5-1.7c-0.2-0.1-0.7-0.5-1.2-0.2
	c-0.2,0.1-0.3,0.3-0.4,0.5c-0.3,0.6-0.4,1.3-0.2,1.9c-0.1,0.1-0.2,0.1-0.3,0.2c-0.3,0.2-0.7,0.4-1,0.6c-0.2,0.1-0.4,0.3-0.7,0.4
	c-1.2,0.7-2.8,1.1-4.3,0.9c-1.8-0.2-3.4-1-5-1.9L35.2,55c-0.1-0.1-0.3-0.2-0.5-0.2c-1.1-0.1-1.6,1.6-1.9,3.1c-0.2,1.2-0.2,2.1-0.1,3
	l0,0c0,0.1-0.8,1.6-0.5,3.8l0.1,0.9c0,0.1,0,0.3,0.1,0.5c0.1,0.3,0.4,0.6,1.1,0.7c0.9,0.1,8.6,0.5,15.4,0.5c2.3,0,4.5,0,6.3-0.2
	c1.9-0.1,3.8-0.3,5.5-0.5h0.2c1.6-0.2,3.3-0.4,4.9-0.9h0.1c0.6-0.2,1.5-0.4,1.4-1.5C67.7,63.9,67.7,63.6,67.7,63.3z"/>
<path class="st0" d="M71.9,63.3L71.9,63.3c-0.1-0.1-0.2-0.4-0.4-0.5l0,0c-0.4-0.5-0.8-0.7-1.2-1h-0.1c-0.5-0.3-1-0.6-1.5-0.9
	c-0.2-0.1-0.4-0.2-0.6-0.3c-0.6-0.3-1.1-0.7-1.7-1.1l0,0l0,0l0.1-0.1c0.1-0.1,0.1-0.2,0.2-0.4c0.1-0.3,0.1-0.6,0-0.9
	c-0.1-0.3-0.4-0.5-0.7-0.6c-0.4-0.1-0.8,0-1.2,0.3c-0.1,0.1-0.2,0.2-0.4,0.3c-0.4-0.3-0.7-0.6-1.1-0.9c0.2-0.2,0.4-0.5,0.4-0.8
	c0.1-0.7-0.4-1.4-1-1.5c-0.5-0.1-0.9,0.1-1.3,0.4l-0.6-0.8c0.3-0.3,0.7-0.7,0.7-1.2c0-0.3-0.1-0.6-0.3-0.9c-0.3-0.3-0.7-0.4-1.1-0.4
	c-0.3,0-0.6,0.1-0.9,0.3l-1.8-2.5c-0.1-0.2-0.5-0.7-1.1-0.6c-0.2,0-0.4,0.2-0.5,0.3c-0.5,0.5-0.8,1.1-0.9,1.7c-0.1,0-0.3,0-0.4,0
	c-0.4,0.1-0.7,0.1-1.1,0.2c-0.3,0.1-0.5,0.1-0.8,0.2c-1.4,0.3-3,0-4.4-0.6c-1.7-0.8-2.8-2.1-4-3.5l-0.3-0.3
	c-0.1-0.1-0.2-0.2-0.4-0.3c-1-0.5-2.1,1-2.8,2.3c-0.6,1-0.9,1.9-1.1,2.8l0,0c-0.1,0-1.3,1.2-1.8,3.4l-0.2,0.9c0,0.1-0.1,0.3-0.1,0.5
	c0,0.3,0.2,0.7,0.8,1c0.8,0.4,7.9,3.4,14.3,5.8c2.1,0.8,4.2,1.5,6,2s3.6,1,5.4,1.4h0.2c1.6,0.4,3.3,0.8,4.9,0.9h0.1
	c0.7,0,1.5,0.1,1.8-0.9c0-0.2,0.1-0.4,0.2-0.7c0.3-1,0.6-1.7,0.6-2.2C72.1,63.9,72,63.6,71.9,63.3z"/>
<path class="st2" d="M59.6,65.9c-1.3,0.1-2.7,0.3-4.1,0.4c-0.6,0-1.2,0.1-1.9,0.1c0.4-0.8,0.8-1.5,1.2-2c-0.2-0.1-0.4-0.1-0.6-0.2
	c-0.5,0.6-0.9,1.3-1.3,2.2c-7.4,0.2-18-0.3-19-0.4c-0.6-0.1-0.6-0.5-0.6-0.6v-0.1L33,64.4c-0.1-0.7-0.1-1.2,0-1.7
	c2.1,0.6,9.5,0.7,16,0.7c1.1,0,2.1,0,3.1,0c-0.6-0.2-1.1-0.4-1.7-0.6c-1.1,0-2.2,0-3.3,0c-7.7,0-12.6-0.3-13.9-0.7
	c0.1-0.3,0.2-0.6,0.2-0.8h0.1c0.9,0.2,2.8,0.4,5,0.5h0.1c0.1,0,0.2,0,0.3,0s0.2,0,0.2,0c0.1,0,0.2,0,0.2,0c0.1,0,0.2,0,0.4,0h0.1
	c0.2,0,0.3,0,0.5,0l0,0c2.5,0.1,5.3,0.1,8,0.1c-0.6-0.2-1.1-0.4-1.7-0.7c-2.5,0-5-0.1-7.2-0.1c-1.2-2.2-3.3-3.9-5.6-4.8
	c0.3-0.8,0.6-1.2,0.9-1.2c0.1,0,0.1,0.1,0.2,0.1l0.4,0.2c0.8,0.4,1.6,0.9,2.4,1.2c0-0.2,0-0.3,0.1-0.4l0.1-0.3
	c-0.7-0.3-1.5-0.7-2.2-1.1l-0.4-0.2c-0.1-0.1-0.3-0.2-0.5-0.2c-1.1-0.1-1.6,1.6-1.9,3.1c-0.2,1.2-0.2,2.1-0.1,3l0,0
	c0,0.1-0.8,1.6-0.5,3.8l0.1,0.9c0,0.1,0,0.3,0.1,0.5c0.1,0.3,0.4,0.6,1.1,0.7c0.9,0.1,8.6,0.5,15.4,0.5c2.3,0,4.5,0,6.3-0.2
	c1.9-0.1,3.8-0.3,5.5-0.5H61c0,0,0,0,0.1,0C60.7,66.2,60.2,66.1,59.6,65.9z M33.6,57.7c0-0.3,0.1-0.5,0.1-0.7c2,0.8,3.8,2.3,5,4.1
	c-2.4-0.1-4.3-0.3-5.2-0.5C33.4,59.8,33.4,58.8,33.6,57.7z"/>
<path class="st2" d="M71.3,67.2c0-0.2,0.1-0.4,0.2-0.7c0.3-1,0.6-1.7,0.6-2.2c0-0.4-0.1-0.8-0.2-1.1l0,0c-0.1-0.1-0.2-0.3-0.3-0.4
	l0,0c-0.4-0.5-0.8-0.7-1.2-1h-0.1c-0.5-0.3-1-0.6-1.5-0.9c-0.2-0.1-0.4-0.2-0.6-0.3c-0.6-0.3-1.1-0.7-1.7-1.1l0,0l0,0l0.1-0.1
	c0.1-0.1,0.1-0.2,0.2-0.4c0.1-0.3,0.1-0.6,0-0.9c-0.1-0.3-0.4-0.5-0.7-0.6c-0.4-0.1-0.8,0-1.2,0.3c-0.1,0.1-0.2,0.2-0.4,0.3
	c-0.4-0.3-0.7-0.6-1.1-0.9c0.2-0.2,0.4-0.5,0.4-0.8c0.1-0.7-0.4-1.4-1-1.5c-0.5-0.1-0.9,0.1-1.3,0.4l-0.6-0.8
	c0.3-0.3,0.7-0.7,0.7-1.2c0-0.3-0.1-0.6-0.3-0.9C61,52.1,60.6,52,60.2,52c-0.3,0-0.6,0.1-0.9,0.3l-1.8-2.5c-0.1-0.2-0.5-0.7-1.1-0.6
	c-0.2,0-0.4,0.2-0.5,0.3c-0.5,0.5-0.8,1.1-0.9,1.7c-0.1,0-0.3,0-0.4,0c-0.4,0.1-0.7,0.1-1.1,0.2c-0.3,0.1-0.5,0.1-0.8,0.2
	c-1.4,0.3-3,0-4.4-0.6c-1.7-0.8-2.8-2.1-4-3.5L44,47.2c-0.1-0.1-0.2-0.2-0.4-0.3c-1-0.5-2.1,1-2.8,2.3c-0.6,1-0.9,1.9-1.1,2.8l0,0
	c-0.1,0-1.3,1.2-1.8,3.4l-0.2,0.9c0,0.1-0.1,0.3-0.1,0.5c0,0.3,0.2,0.7,0.8,1c0.8,0.4,7.9,3.4,14.3,5.8c2.1,0.8,4.2,1.5,6,2
	s3.6,1,5.4,1.4h0.2c1.6,0.4,3.3,0.8,4.9,0.9h0.1C70.1,68.1,71,68.2,71.3,67.2z M65.1,58.3c0.2-0.2,0.5-0.2,0.7-0.2
	c0.1,0,0.2,0.1,0.3,0.3c0.1,0.1,0.1,0.3,0,0.4c0,0.1,0,0.1-0.1,0.2l-0.1,0.1l0,0l0,0c-0.3-0.2-0.6-0.5-1-0.7
	C65,58.4,65.1,58.3,65.1,58.3z M62.9,57.6c0.3,0.3,0.6,0.5,1,0.8c-0.1,0.1-0.2,0.1-0.3,0.2c-0.3,0.1-0.6,0.2-0.8,0.1
	c-0.1-0.1-0.2-0.1-0.3-0.3C62.5,58.1,62.6,57.9,62.9,57.6z M62.7,55.5c0.3,0.1,0.6,0.4,0.5,0.8c0,0.2-0.1,0.3-0.3,0.5
	c-0.3-0.3-0.7-0.6-1-1C62.1,55.6,62.4,55.4,62.7,55.5z M60.9,55.7c-0.3,0.3-0.6,0.5-0.9,0.5c-0.2,0-0.4-0.1-0.5-0.2
	c-0.1-0.1-0.1-0.2,0-0.3c0-0.1,0.2-0.2,0.3-0.3l0.5-0.4C60.4,55.3,60.7,55.5,60.9,55.7z M60.3,52.6c0.2,0,0.4,0.1,0.6,0.2
	c0.1,0.1,0.2,0.2,0.1,0.4c0,0.3-0.3,0.5-0.5,0.7l-0.8-1.1C59.9,52.7,60.1,52.6,60.3,52.6z M56.4,50c0,0,0.1-0.1,0.2-0.1
	c0.1,0,0.2,0,0.4,0.3l1.5,2.1c-0.8-0.6-1.8-1-2.8-1C55.8,50.8,56,50.4,56.4,50z M43.4,47.5c0.1,0,0.1,0.1,0.2,0.2l0.3,0.3
	c1.2,1.4,2.4,2.8,4.2,3.7c1.5,0.7,3.2,1,4.8,0.7c0.3-0.1,0.6-0.1,0.8-0.2c0.4-0.1,0.7-0.2,1-0.2c1.2-0.2,2.5,0.2,3.5,0.9l0.1,0.1
	l-1.1,0.9l0.4,0.5l1.2-0.9c0.1,0.1,0.2,0.2,0.3,0.3c0.1,0.2,0.3,0.3,0.4,0.5c0.1,0.1,0.2,0.2,0.3,0.3L59.3,55
	c-0.1,0.1-0.3,0.3-0.4,0.5c-0.1,0.3-0.1,0.6,0.1,0.9c0.2,0.3,0.7,0.5,1.1,0.5c0.5-0.1,0.9-0.4,1.3-0.7c0.4,0.3,0.7,0.7,1.1,1
	c-0.4,0.3-0.7,0.8-0.5,1.4c0.1,0.3,0.3,0.5,0.6,0.6c0.4,0.2,0.9,0.1,1.3-0.1c0.2-0.1,0.3-0.2,0.5-0.3c0.4,0.3,0.8,0.6,1.1,0.8
	c-0.2,0.2-0.4,0.5-0.6,0.6l0.4,0.5c0.2-0.2,0.5-0.5,0.7-0.7c0.6,0.4,1.2,0.8,1.7,1.1c0.2,0.1,0.4,0.2,0.6,0.3c0.5,0.3,1,0.6,1.5,0.8
	h0.1c0.3,0.2,0.5,0.3,0.7,0.5c0,0,0,0-0.1,0c-0.2,0-0.4,0.1-0.6,0c-1.6-0.1-3.3-0.6-4.9-1.1l0,0.2l0,0l0,0c0,0,0,0-0.1,0l0,0
	c-1.5-0.5-12.2-4.2-19.1-7c-0.4-2.5-1.7-4.8-3.6-6.4C42.7,47.7,43.2,47.4,43.4,47.5z M41.4,49.5c0.1-0.2,0.3-0.4,0.4-0.6
	c1.6,1.5,2.8,3.4,3.2,5.6c-2.2-0.9-3.9-1.7-4.7-2.3C40.5,51.4,40.9,50.5,41.4,49.5z M40,52.7C40,52.7,40.1,52.7,40,52.7
	c0.9,0.6,2.5,1.4,4.6,2.3h0.1c0.1,0,0.2,0.1,0.3,0.1s0.1,0.1,0.2,0.1c0.1,0,0.1,0.1,0.2,0.1c0.1,0,0.2,0.1,0.3,0.1
	c0,0,0.1,0,0.1,0.1c0.2,0.1,0.3,0.1,0.5,0.2l0,0c7.3,2.9,17.8,6.5,18.4,6.7l0.2,0.1c1.6,0.5,3.3,1,5,1.1c0.2,0,0.5,0,0.8-0.1
	c0,0,0.1,0,0.2,0l0,0l0,0c0,0,0,0,0.1,0l0,0c0,0,0,0,0.1,0l0,0h0.1c0,0,0,0.1,0.1,0.1l0,0c0.1,0.2,0.1,0.4,0.2,0.7
	c-0.1,0-0.2,0-0.3,0.1c-0.1,0-0.1,0-0.2,0c-0.2,0-0.8,0.1-1,0.1c-1.7-0.1-3.3-0.6-5-1.1l-0.2-0.1c-0.7-0.2-6.4-2.2-12.4-4.4
	c-7.2-2.7-11.7-4.6-12.8-5.5C39.7,53.1,39.9,52.9,40,52.7z M38.8,57.3c-0.6-0.3-0.4-0.7-0.4-0.8v-0.1l0.2-0.9
	c0.1-0.6,0.3-1.2,0.6-1.6c1.8,1.3,8.6,4,14.8,6.2c2,0.7,3.9,1.4,5.6,2c-0.9,0.3-1.9,1.1-3,2.1C49.5,61.9,39.8,57.8,38.8,57.3z
	 M69.5,67.4L69.5,67.4c-1.7-0.1-3.3-0.5-4.9-0.9h-0.2c-1.7-0.4-3.5-0.9-5.3-1.4c-0.6-0.2-1.2-0.4-1.8-0.6c1.3-1.2,2.4-1.9,3.4-1.9
	l0,0c2.2,0.8,3.7,1.3,3.9,1.3l0.2,0.1c1.7,0.5,3.4,1,5.1,1.1c0.3,0,1,0,1.2-0.1c0.1,0,0.1,0,0.2-0.1h0.1c-0.1,0.4-0.3,1-0.4,1.4
	c-0.1,0.3-0.2,0.6-0.2,0.7C70.5,67.5,70.3,67.5,69.5,67.4z"/>
</svg>
