<?xml version="1.0" encoding="utf-8"?>
<!-- Generator: Adobe Illustrator 26.0.1, SVG Export Plug-In . SVG Version: 6.00 Build 0)  -->
<svg version="1.1" id="Layer_1" xmlns="http://www.w3.org/2000/svg" xmlns:xlink="http://www.w3.org/1999/xlink" x="0px" y="0px"
	 viewBox="0 0 80 80" style="enable-background:new 0 0 80 80;" xml:space="preserve">
<style type="text/css">
	.st0{fill:#24C7A4;}
	.st1{fill:none;stroke:#FFFFFF;stroke-width:1.0205;stroke-linecap:round;stroke-linejoin:round;stroke-miterlimit:10;}
	.st2{fill:#24C7A4;stroke:#FFFFFF;stroke-width:1.0205;stroke-linecap:round;stroke-linejoin:round;stroke-miterlimit:10;}
</style>
<path class="st0" d="M40,80L40,80C17.9,80,0,62.1,0,40l0,0C0,17.9,17.9,0,40,0l0,0c22.1,0,40,17.9,40,40l0,0C80,62.1,62.1,80,40,80z
	"/>
<g>
	<path class="st1" d="M47,28.5H29.4c-4.1,0-7.4,3.3-7.4,7.4v3.3c2.4,0.6,4.1,2.6,4.1,3.9v10.3c0-1.6,1.3-2.8,2.8-2.8h18.6
		c1.6,0,2.8,1.3,2.8,2.8V43.1c0-1.3,1.6-3.3,4-3.9v-3.3C54.4,31.8,51.1,28.5,47,28.5z"/>
	<path class="st1" d="M47.5,50.5H28.9c-1.6,0-2.8,1.3-2.8,2.8v1.1h24.3v-1.1C50.3,51.8,49.1,50.5,47.5,50.5z"/>
	<line class="st1" x1="33.8" y1="31.3" x2="38" y2="31.3"/>
	<path class="st1" d="M39.6,31.3h7.9c2,0,3.6,1.6,3.6,3.6v0.3"/>
	<path class="st1" d="M17,28.7c2.7-4.4,2.9-8.4,0.4-12.9C13.7,20.2,13.2,24.5,17,28.7z"/>
	<path class="st1" d="M21.3,24.6c5.6-2.8,9.4-6.7,10.2-14C23.9,12.4,20.2,15.4,21.3,24.6z"/>
	<path class="st1" d="M18.7,47.7c-0.7-12.9-0.4-20.7,8-32.5"/>
	<path class="st1" d="M18.9,32.9c-1.5-1.6-2.2-3.7-2.2-8.3"/>
	<polygon class="st1" points="15.6,59.7 22.6,59.7 24.7,47.7 13.6,47.7 	"/>
	<path class="st1" d="M22.8,62.9c-0.7,0-1.3-0.2-1.9-0.6v1.9c0,1.1,0.9,1.9,1.9,1.9s1.9-0.9,1.9-1.9v-1.9l0,0
		C24.2,62.6,23.6,62.9,22.8,62.9z"/>
	<path class="st1" d="M53.6,62.9c-0.7,0-1.4-0.2-1.9-0.6v1.9c0,1.1,0.9,1.9,1.9,1.9c1.1,0,1.9-0.9,1.9-1.9v-1.9l0,0
		C55,62.6,54.3,62.9,53.6,62.9z"/>
	<path class="st1" d="M50.3,59.6v-5.2H26.1v5.2c0,0.6-0.2,1.2-0.5,1.7l0,0h25.2l0,0C50.5,60.8,50.3,60.3,50.3,59.6z"/>
	<line class="st1" x1="60.2" y1="32.6" x2="60.2" y2="39.4"/>
	<path class="st1" d="M60.2,32.6L60.2,32.6c-0.8,0-1.4-0.6-1.4-1.4v-0.9h2.8v0.9C61.5,32,60.9,32.6,60.2,32.6z"/>
	<path class="st1" d="M66.6,41.2h-6.3c0.6,0.8,1,1.7,1,2.7c0,2.5-1.9,4.6-4.4,4.8l0,0v10.4h9.8c0.8,0,1.4-0.6,1.4-1.4v-15
		C68,41.9,67.4,41.2,66.6,41.2z"/>
	<path class="st1" d="M60.3,41.2h4.6c0-1-0.8-1.8-1.8-1.8H58C58.8,39.8,59.7,40.5,60.3,41.2z"/>
	<path class="st1" d="M66.5,41.2h-6.3c0.6,0.8,1,1.7,1,2.7c0,0.1,0,0.1,0,0.2v0.1h5.3c0.8,0,1.5-0.7,1.5-1.5S67.4,41.2,66.5,41.2z"
		/>
	<polygon class="st1" points="62.6,20.2 57.7,20.2 53.8,30.4 66.5,30.4 	"/>
	<path class="st2" d="M19.6,48.7c-2.5-0.2-4.4-2.3-4.4-4.8c0-2.7,2.7-4.9,5.4-4.9c3.1,0,5.5,2.6,5.5,4.1v16.5c0,1.8-1.4,3.2-3.2,3.2
		s-3.2-1.4-3.2-3.2L19.6,48.7L19.6,48.7z"/>
	<path class="st1" d="M56.8,48.7c2.5-0.2,4.4-2.3,4.4-4.8c0-2.7-2.7-4.9-5.4-4.9c-3.1,0-5.5,2.6-5.5,4.1v16.5c0,1.8,1.4,3.2,3.2,3.2
		s3.2-1.4,3.2-3.2L56.8,48.7L56.8,48.7z"/>
</g>
</svg>
