<?xml version="1.0" encoding="utf-8"?>
<!-- Generator: Adobe Illustrator 26.0.1, SVG Export Plug-In . SVG Version: 6.00 Build 0)  -->
<svg version="1.1" id="Layer_1" xmlns="http://www.w3.org/2000/svg" xmlns:xlink="http://www.w3.org/1999/xlink" x="0px" y="0px"
	 viewBox="0 0 97.87 80" style="enable-background:new 0 0 97.87 80;" xml:space="preserve">
<style type="text/css">
	.st0{fill:none;stroke:#010101;stroke-width:1.0378;stroke-linecap:round;stroke-linejoin:round;stroke-miterlimit:10;}
	.st1{fill:none;stroke:#010101;stroke-width:0.9996;stroke-linecap:round;stroke-linejoin:round;stroke-miterlimit:10;}
</style>
<g>
	<path class="st0" d="M60.77,25.58h-23.3c-5.4,0-9.77,4.37-9.77,9.77v4.32c3.17,0.82,5.38,3.49,5.38,5.2v13.6
		c0-2.08,1.69-3.77,3.77-3.77h24.61c2.08,0,3.77,1.69,3.77,3.77v-13.6c0-1.7,2.18-4.35,5.32-5.18v-4.34
		C70.55,29.96,66.17,25.58,60.77,25.58z"/>
	<line class="st0" x1="80.05" y1="26.78" x2="80.05" y2="40.46"/>
	<polygon class="st0" points="84.07,5.88 76.02,5.88 69.69,22.44 90.4,22.44 	"/>
	<path class="st0" d="M80.05,26.78L80.05,26.78c-1.48,0-2.68-1.2-2.68-2.68v-1.67h5.35v1.67C82.72,25.59,81.53,26.78,80.05,26.78z"
		/>
	<path class="st0" d="M61.46,54.7H36.85c-2.08,0-3.77,1.69-3.77,3.77v1.43h32.14v-1.43C65.22,56.39,63.54,54.7,61.46,54.7z"/>
	<path class="st0" d="M24.5,52.35c-3.27-0.3-5.83-3.06-5.83-6.41c0-3.56,3.56-6.51,7.12-6.51c4.17,0,7.3,3.41,7.3,5.45v21.9
		c0,2.37-1.92,4.29-4.29,4.29s-4.29-1.92-4.29-4.29L24.5,52.35L24.5,52.35z"/>
	<path class="st0" d="M73.81,52.35c3.27-0.3,5.83-3.06,5.83-6.41c0-3.56-3.56-6.51-7.12-6.51c-4.17,0-7.3,3.41-7.3,5.45v21.9
		c0,2.37,1.92,4.29,4.29,4.29s4.29-1.92,4.29-4.29L73.81,52.35L73.81,52.35z"/>
	<line class="st0" x1="43.29" y1="29.23" x2="48.87" y2="29.23"/>
	<path class="st0" d="M50.96,29.23h10.45c2.6,0,4.71,2.11,4.71,4.71v0.45"/>
	<g>
		<path class="st0" d="M11.99,29.82c3.57-5.86,3.86-11.15,0.55-17.14C7.59,18.55,6.9,24.22,11.99,29.82z"/>
		<path class="st0" d="M17.68,24.31c7.41-3.7,12.42-8.9,13.53-18.5C21.2,8.19,16.2,12.21,17.68,24.31z"/>
		<polygon class="st0" points="10.16,70.9 19.43,70.9 22.16,54.95 7.43,54.95 		"/>
		<path class="st0" d="M14.24,54.95c-0.93-17.1-0.54-27.41,10.55-43.04"/>
		<path class="st0" d="M14.58,35.33c-2.04-2.06-2.97-4.91-2.97-11.02"/>
	</g>
	<path class="st0" d="M28.8,71.07c-0.93,0-1.78-0.3-2.48-0.8v2.49c0,1.4,1.13,2.53,2.53,2.53s2.53-1.13,2.53-2.53v-2.53h-0.05
		C30.62,70.75,29.75,71.07,28.8,71.07z"/>
	<path class="st0" d="M69.51,71.07c-0.94,0-1.8-0.31-2.51-0.82v2.51c0,1.4,1.13,2.53,2.53,2.53c1.4,0,2.53-1.13,2.53-2.53v-2.53
		h-0.02C71.34,70.75,70.47,71.07,69.51,71.07z"/>
	<path class="st0" d="M65.22,66.78V59.9H33.09v6.88c0,0.83-0.25,1.6-0.66,2.26v0.02h33.45v-0.02
		C65.47,68.38,65.22,67.61,65.22,66.78z"/>
	<path class="st1" d="M89.63,42.39H78.37c0.78,1.03,1.27,2.25,1.27,3.56c0,3.35-2.56,6.1-5.83,6.41h0v13.74h15.83
		c1.04,0,1.89-0.85,1.89-1.89V44.28C91.52,43.23,90.67,42.39,89.63,42.39z"/>
	<path class="st0" d="M78.37,42.39h8.98c0-1.06-0.86-1.93-1.93-1.93h-9.25C77.03,40.96,77.79,41.62,78.37,42.39z"/>
	<path class="st0" d="M89.54,42.39H78.37c0.78,1.03,1.27,2.25,1.27,3.56c0,0.09-0.01,0.18-0.01,0.27c0,0.04,0.01,0.09,0.01,0.13
		h9.91c1.09,0,1.98-0.89,1.98-1.98C91.52,43.27,90.63,42.39,89.54,42.39z"/>
</g>
</svg>
