<?xml version="1.0" encoding="utf-8"?>
<!-- Generator: Adobe Illustrator 26.0.1, SVG Export Plug-In . SVG Version: 6.00 Build 0)  -->
<svg version="1.1" id="Layer_1" xmlns="http://www.w3.org/2000/svg" xmlns:xlink="http://www.w3.org/1999/xlink" x="0px" y="0px"
	 viewBox="0 0 140 126" style="enable-background:new 0 0 140 126;" xml:space="preserve">
<style type="text/css">
	.st0{fill:none;stroke:#404041;stroke-width:3.0109;stroke-linecap:round;stroke-linejoin:round;stroke-miterlimit:10;}
	.st1{fill:none;stroke:#df7d14;stroke-width:3.0109;stroke-linecap:round;stroke-linejoin:round;stroke-miterlimit:10;}
</style>
<g>
	<g>
		<path class="st0" d="M70.9,100.8H115c-4.8,0-8.8-3.9-8.8-8.8v-1.6"/>
		<path class="st0" d="M106.2,45.3V31v-1.4c0-4.8-3.9-8.8-8.8-8.8H46.1c4.8,0,8.8,3.9,8.8,8.8v11.2"/>
		<path class="st0" d="M46.1,20.8c-4.8,0-8.8,3.9-8.8,8.8v5.3h17.5"/>
		<line class="st0" x1="96.3" y1="32.9" x2="65.2" y2="32.9"/>
		<line class="st0" x1="96.3" y1="39.1" x2="65.2" y2="39.1"/>
		<line class="st0" x1="96.3" y1="45.3" x2="65.2" y2="45.3"/>
		<line class="st0" x1="91" y1="51.6" x2="82" y2="51.6"/>
		<polyline class="st0" points="99.3,75.5 99.3,88.5 105.9,84.3 112.5,88.5 112.5,75.6 		"/>
		
			<ellipse transform="matrix(0.4384 -0.8988 0.8988 0.4384 2.2234 130.9862)" class="st0" cx="105.9" cy="63.7" rx="13.4" ry="13.4"/>
		<polyline class="st0" points="99.5,62.8 104.7,68.1 113.3,59.5 		"/>
	</g>
	<polyline class="st1" points="36.8,74.4 45.5,83.2 59.9,68.8 	"/>
	<path class="st1" d="M47.6,44.2c0,0-13.6,10.5-24.9,10.5v26.7c0,5.5,2.3,10.5,6.1,13.4c4,2.9,15.8,10.8,16.3,11.1l2.5,1.6l2.5-1.6
		c0.5-0.3,12.4-8.2,16.3-11.1c3.8-2.8,6.1-7.8,6.1-13.4V54.7C61.2,54.7,47.6,44.2,47.6,44.2z"/>
</g>
</svg>
