<?xml version="1.0" encoding="utf-8"?>
<!-- Generator: Adobe Illustrator 26.0.1, SVG Export Plug-In . SVG Version: 6.00 Build 0)  -->
<svg version="1.1" id="Layer_1" xmlns="http://www.w3.org/2000/svg" xmlns:xlink="http://www.w3.org/1999/xlink" x="0px" y="0px"
	 viewBox="0 0 80 80" style="enable-background:new 0 0 80 80;" xml:space="preserve">
<style type="text/css">
	.st0{fill:#24C7A4;}
	.st1{fill:none;stroke:#FFFFFF;stroke-width:0.9185;stroke-linecap:round;stroke-linejoin:round;stroke-miterlimit:10;}
</style>
<path class="st0" d="M40,80L40,80C17.9,80,0,62.1,0,40l0,0C0,17.9,17.9,0,40,0l0,0c22.1,0,40,17.9,40,40l0,0C80,62.1,62.1,80,40,80z
	"/>
<g>
	<g>
		<path class="st1" d="M24.6,50.6L24.6,50.6c0-1.3-1-2.3-2.3-2.3c-1.2,0-2.3,1-2.3,2.3c0,1.2,1,2.2,2.2,2.2
			C22.5,51.7,23.5,50.7,24.6,50.6z"/>
		<path class="st1" d="M59.2,48.3c-1.2,0-2.3,1-2.3,2.3l0,0c1.2,0.1,2.1,1.1,2.3,2.2c1.2,0,2.2-1,2.2-2.2
			C61.5,49.3,60.5,48.3,59.2,48.3z"/>
	</g>
	<g>
		<path class="st1" d="M27.5,53.5c0-0.1,0-0.2,0-0.3c0-1.5-1.2-2.6-2.6-2.6c-1.5,0-2.6,1.2-2.6,2.6c0,1.4,1.2,2.6,2.6,2.6
			C25.3,54.7,26.3,53.8,27.5,53.5z"/>
		<path class="st1" d="M56.7,50.6c-1.5,0-2.6,1.2-2.6,2.6c0,0.1,0,0.2,0,0.3c1.2,0.3,2.2,1.1,2.6,2.3c1.4,0,2.6-1.2,2.6-2.6
			C59.3,51.7,58.1,50.6,56.7,50.6z"/>
	</g>
	<g>
		<path class="st1" d="M53.4,53.5c-1.9,0-3.5,1.5-3.6,3.4c1.4,0.6,2.4,2,2.4,3.6c0.4,0.1,0.7,0.2,1.1,0.2c2,0,3.6-1.6,3.6-3.6
			C56.9,55.1,55.3,53.5,53.4,53.5z"/>
		<path class="st1" d="M31.8,56.8c-0.1-1.9-1.6-3.4-3.6-3.4S24.6,55,24.6,57s1.6,3.6,3.6,3.6c0.4,0,0.8-0.1,1.1-0.2
			C29.5,58.8,30.4,57.5,31.8,56.8z"/>
	</g>
	<path class="st1" d="M52.3,60.6c0,2.3-1.9,4.2-4.2,4.2c-1,0-1.9-0.4-2.6-1c0.1-0.4,0.2-0.9,0.2-1.4c0-1.3-0.5-2.6-1.4-3.4
		c0.6-1.5,2.1-2.5,3.8-2.5C50.4,56.5,52.3,58.3,52.3,60.6z M35.9,62.4c0-1.3,0.5-2.6,1.4-3.4c-0.6-1.5-2.1-2.5-3.8-2.5
		c-2.3,0-4.2,1.9-4.2,4.2s1.9,4.2,4.2,4.2c1,0,1.9-0.4,2.6-1C36,63.4,35.9,62.9,35.9,62.4z"/>
	<g>
		<path class="st1" d="M20.2,44.9c0.3,0,0.5,0.1,0.8,0.1c0.2-0.4,0.4-0.8,0.4-1.3c0-1.2-1-2.3-2.3-2.3c-1.2,0-2.3,1-2.3,2.3
			c0,1,0.6,1.8,1.5,2.1C18.7,45.3,19.4,44.9,20.2,44.9z"/>
		<path class="st1" d="M62.5,41.5c-1.2,0-2.3,1-2.3,2.3c0,0.5,0.1,0.9,0.4,1.3c0.2-0.1,0.5-0.1,0.8-0.1c0.8,0,1.5,0.4,1.9,1
			c0.9-0.3,1.5-1.1,1.5-2.1C64.8,42.6,63.8,41.5,62.5,41.5z"/>
	</g>
	<g>
		<path class="st1" d="M19.1,41.5c0.1,0,0.2,0,0.2,0c0.3-0.3,0.4-0.7,0.4-1.2c0-1-0.8-1.8-1.8-1.8s-1.8,0.8-1.8,1.8
			c0,0.9,0.6,1.6,1.4,1.8C17.9,41.8,18.5,41.5,19.1,41.5z"/>
		<path class="st1" d="M63.7,38.6c-1,0-1.8,0.8-1.8,1.8c0,0.4,0.2,0.9,0.4,1.2c0.1,0,0.1,0,0.2,0c0.6,0,1.2,0.2,1.6,0.6
			c0.8-0.2,1.4-0.9,1.4-1.8C65.6,39.4,64.7,38.6,63.7,38.6z"/>
	</g>
	<g>
		<path class="st1" d="M17.9,36c-1,0-1.8,0.8-1.8,1.8c0,0.5,0.2,1,0.5,1.3c0.3-0.3,0.8-0.6,1.3-0.6s1,0.2,1.3,0.6
			c0.3-0.3,0.5-0.8,0.5-1.3C19.7,36.8,18.9,36,17.9,36z"/>
		<path class="st1" d="M63.7,38.6c0.5,0,1,0.2,1.3,0.6c0.3-0.3,0.5-0.8,0.5-1.3c0-1-0.8-1.8-1.8-1.8c-1,0-1.8,0.8-1.8,1.8
			c0,0.5,0.2,1,0.5,1.3C62.7,38.8,63.2,38.6,63.7,38.6z"/>
	</g>
	<g>
		<path class="st1" d="M63.3,36c0-0.1,0-0.1,0-0.2c0-1-0.8-1.8-1.8-1.8s-1.8,0.8-1.8,1.8s0.8,1.8,1.8,1.8c0.1,0,0.3,0,0.4,0
			C62,36.8,62.6,36.2,63.3,36z"/>
		<path class="st1" d="M20.1,34c-1,0-1.8,0.8-1.8,1.8c0,0.1,0,0.1,0,0.2c0.8,0.2,1.3,0.8,1.4,1.6c0.1,0,0.3,0,0.4,0
			c1,0,1.8-0.8,1.8-1.8S21.1,34,20.1,34z"/>
	</g>
	<path class="st1" d="M33.1,58.2c1.6,0,2.9,1.3,2.9,2.9"/>
	<path class="st1" d="M47.7,58.2c1.6,0,2.9,1.3,2.9,2.9"/>
	<circle class="st1" cx="40.8" cy="62.4" r="4.9"/>
	<path class="st1" d="M40.1,59.7c1.9,0,3.4,1.5,3.4,3.4"/>
	<circle class="st1" cx="40.8" cy="33.5" r="15.2"/>
	<path class="st1" d="M31.3,41.7c2.3,2.6,5.7,4.3,9.5,4.3c5.9,0,10.9-4.1,12.2-9.6"/>
	<path class="st1" d="M53,30.4c-1.4-5.5-6.3-9.5-12.2-9.5c-7,0-12.6,5.6-12.6,12.6c0,1.6,0.3,3,0.8,4.4"/>
	<polygon class="st0" points="49.6,14.2 31.6,14.2 40.6,24.7 	"/>
	<g>
		<polygon class="st1" points="47.2,14.4 33.9,14.4 40.6,22.1 		"/>
		<polygon class="st1" points="43.9,10.4 37.2,10.4 33.9,14.4 47.2,14.4 		"/>
		<polygon class="st1" points="38.3,14.4 40.6,22.1 42.8,14.4 40.6,10.4 		"/>
		<line class="st1" x1="37.2" y1="10.4" x2="38.3" y2="14.4"/>
		<line class="st1" x1="43.9" y1="10.4" x2="42.8" y2="14.4"/>
	</g>
	<g>
		<path class="st1" d="M20.5,49.4c0.3-0.6,0.9-1,1.6-1c0.2-0.3,0.3-0.7,0.3-1.2c0-1.2-1-2.3-2.3-2.3c-1.2,0-2.3,1-2.3,2.3
			c0,1.2,1,2.3,2.3,2.3C20.3,49.4,20.4,49.4,20.5,49.4z"/>
		<path class="st1" d="M61.4,44.9c-1.2,0-2.3,1-2.3,2.3c0,0.4,0.1,0.8,0.3,1.2c0.7,0.1,1.3,0.5,1.6,1c0.1,0,0.2,0,0.3,0
			c1.2,0,2.3-1,2.3-2.3C63.7,45.9,62.7,44.9,61.4,44.9z"/>
	</g>
</g>
</svg>
