<?xml version="1.0" encoding="utf-8"?>
<!-- Generator: Adobe Illustrator 26.0.1, SVG Export Plug-In . SVG Version: 6.00 Build 0)  -->
<svg version="1.1" id="Layer_1" xmlns="http://www.w3.org/2000/svg" xmlns:xlink="http://www.w3.org/1999/xlink" x="0px" y="0px"
	 viewBox="0 0 80 80" style="enable-background:new 0 0 80 80;" xml:space="preserve">
<style type="text/css">
	.st0{fill:none;stroke:#010101;stroke-linecap:round;stroke-linejoin:round;stroke-miterlimit:10;}
	.st1{fill:#FFFFFF;}
</style>
<g>
	<path class="st0" d="M30.54,62.49c1.86,0,3.37,1.51,3.37,3.37"/>
	<path class="st0" d="M47.61,62.47c1.86,0,3.37,1.51,3.37,3.37"/>
	<circle class="st0" cx="39.56" cy="67.48" r="5.69"/>
	<path class="st0" d="M38.7,64.28c2.22,0,4.02,1.8,4.02,4.02"/>
	<circle class="st0" cx="39.5" cy="33.58" r="17.81"/>
	<path class="st0" d="M28.42,43.28c2.7,3.08,6.66,5.03,11.08,5.03c6.91,0,12.7-4.75,14.3-11.17"/>
	<path class="st0" d="M53.78,29.96c-1.61-6.39-7.4-11.11-14.28-11.11c-8.14,0-14.73,6.59-14.73,14.73c0,1.82,0.33,3.56,0.93,5.16"/>
	<polygon class="st1" points="49.81,11.04 28.75,11.04 39.28,23.32 	"/>
	<g>
		<polygon class="st0" points="47.08,11.27 31.48,11.27 39.28,20.36 		"/>
		<polygon class="st0" points="43.2,6.65 35.35,6.65 31.48,11.27 47.08,11.27 		"/>
		<polygon class="st0" points="36.68,11.27 39.28,20.36 41.88,11.27 39.28,6.65 		"/>
		<line class="st0" x1="35.35" y1="6.65" x2="36.68" y2="11.27"/>
		<line class="st0" x1="43.2" y1="6.65" x2="41.88" y2="11.27"/>
	</g>
	<path class="st0" d="M52.96,65.37c0,2.69-2.18,4.88-4.88,4.88c-1.18,0-2.24-0.43-3.08-1.13c0.16-0.52,0.24-1.07,0.24-1.64
		c0-1.57-0.63-2.98-1.66-4.01c0.74-1.75,2.47-2.98,4.49-2.98C50.78,60.49,52.96,62.67,52.96,65.37z M33.87,67.48
		c0-1.57,0.63-2.98,1.66-4.01c-0.74-1.75-2.47-2.98-4.49-2.98c-2.69,0-4.88,2.18-4.88,4.88c0,2.69,2.18,4.88,4.88,4.88
		c1.18,0,2.24-0.43,3.08-1.13C33.96,68.6,33.87,68.05,33.87,67.48z"/>
	<g>
		<path class="st0" d="M54.23,56.97c-2.23,0-4.03,1.75-4.16,3.95c1.62,0.73,2.76,2.32,2.86,4.19c0.41,0.13,0.84,0.23,1.3,0.23
			c2.31,0,4.18-1.87,4.18-4.18C58.41,58.85,56.54,56.97,54.23,56.97z"/>
		<path class="st0" d="M29.04,60.92c-0.12-2.2-1.93-3.95-4.16-3.95c-2.31,0-4.18,1.87-4.18,4.18c0,2.31,1.87,4.18,4.18,4.18
			c0.46,0,0.89-0.09,1.3-0.23C26.28,63.24,27.42,61.65,29.04,60.92z"/>
	</g>
	<g>
		<path class="st0" d="M24.03,57.06c0.02-0.13,0.04-0.26,0.04-0.4c0-1.7-1.38-3.07-3.07-3.07s-3.07,1.38-3.07,3.07
			c0,1.69,1.36,3.06,3.05,3.07C21.45,58.39,22.6,57.36,24.03,57.06z"/>
		<path class="st0" d="M58.12,53.59c-1.7,0-3.07,1.38-3.07,3.07c0,0.14,0.02,0.26,0.04,0.4c1.43,0.3,2.57,1.33,3.06,2.68
			c1.68-0.02,3.05-1.38,3.05-3.07C61.2,54.97,59.82,53.59,58.12,53.59z"/>
	</g>
	<g>
		<path class="st0" d="M20.66,53.63C20.66,53.62,20.66,53.62,20.66,53.63c0-1.46-1.18-2.64-2.63-2.64s-2.64,1.18-2.64,2.64
			c0,1.44,1.15,2.6,2.58,2.63C18.15,54.86,19.26,53.78,20.66,53.63z"/>
		<path class="st0" d="M61.1,50.98c-1.46,0-2.64,1.18-2.64,2.64c0,0,0,0.01,0,0.01c1.4,0.15,2.5,1.23,2.69,2.62
			c1.43-0.03,2.58-1.19,2.58-2.63C63.73,52.16,62.55,50.98,61.1,50.98z"/>
	</g>
	<g>
		<path class="st0" d="M15.79,52.24c0.41-0.66,1.09-1.12,1.89-1.22c0.25-0.4,0.4-0.87,0.4-1.38c0-1.46-1.18-2.64-2.64-2.64
			s-2.64,1.18-2.64,2.64c0,1.46,1.18,2.64,2.64,2.64C15.56,52.27,15.67,52.25,15.79,52.24z"/>
		<path class="st0" d="M63.68,47c-1.46,0-2.64,1.18-2.64,2.64c0,0.51,0.15,0.98,0.4,1.38c0.8,0.11,1.48,0.56,1.89,1.22
			c0.11,0.02,0.23,0.03,0.35,0.03c1.46,0,2.64-1.18,2.64-2.64C66.31,48.18,65.13,47,63.68,47z"/>
	</g>
	<g>
		<path class="st0" d="M15.44,47c0.31,0,0.6,0.06,0.88,0.16c0.29-0.42,0.46-0.94,0.46-1.49c0-1.46-1.18-2.64-2.64-2.64
			c-1.46,0-2.64,1.18-2.64,2.64c0,1.15,0.74,2.11,1.76,2.47C13.74,47.46,14.54,47,15.44,47z"/>
		<path class="st0" d="M64.97,43.04c-1.46,0-2.64,1.18-2.64,2.64c0,0.55,0.17,1.07,0.46,1.49c0.28-0.1,0.57-0.16,0.88-0.16
			c0.9,0,1.7,0.45,2.17,1.14c1.02-0.36,1.76-1.33,1.76-2.47C67.61,44.22,66.43,43.04,64.97,43.04z"/>
	</g>
	<g>
		<path class="st0" d="M14.15,43.04c0.09,0,0.18,0.02,0.27,0.03c0.31-0.37,0.51-0.85,0.51-1.37c0-1.19-0.96-2.15-2.15-2.15
			s-2.15,0.96-2.15,2.15c0,1.03,0.72,1.88,1.68,2.09C12.78,43.32,13.43,43.04,14.15,43.04z"/>
		<path class="st0" d="M66.34,39.55c-1.19,0-2.15,0.96-2.15,2.15c0,0.52,0.2,1,0.51,1.37c0.09-0.01,0.17-0.03,0.27-0.03
			c0.72,0,1.36,0.29,1.84,0.75c0.96-0.21,1.68-1.07,1.68-2.09C68.49,40.51,67.53,39.55,66.34,39.55z"/>
	</g>
	<g>
		<path class="st0" d="M12.77,36.55c-1.19,0-2.15,0.96-2.15,2.15c0,0.58,0.24,1.11,0.61,1.5c0.39-0.4,0.93-0.65,1.53-0.65
			s1.14,0.25,1.53,0.65c0.38-0.39,0.61-0.92,0.61-1.5C14.92,37.51,13.96,36.55,12.77,36.55z"/>
		<path class="st0" d="M66.34,39.55c0.6,0,1.14,0.25,1.53,0.65c0.38-0.39,0.61-0.92,0.61-1.5c0-1.19-0.96-2.15-2.15-2.15
			s-2.15,0.96-2.15,2.15c0,0.58,0.24,1.11,0.61,1.5C65.2,39.8,65.74,39.55,66.34,39.55z"/>
	</g>
	<g>
		<path class="st0" d="M65.88,36.6c0.01-0.08,0.02-0.15,0.02-0.23c0-1.19-0.96-2.15-2.15-2.15c-1.19,0-2.15,0.96-2.15,2.15
			s0.96,2.15,2.15,2.15c0.16,0,0.31-0.02,0.46-0.05C64.32,37.54,65,36.79,65.88,36.6z"/>
		<path class="st0" d="M15.36,34.22c-1.19,0-2.15,0.96-2.15,2.15c0,0.08,0.02,0.16,0.02,0.23c0.89,0.19,1.56,0.94,1.66,1.86
			c0.15,0.03,0.3,0.05,0.46,0.05c1.19,0,2.15-0.96,2.15-2.15S16.54,34.22,15.36,34.22z"/>
	</g>
</g>
</svg>
