<?xml version="1.0" encoding="utf-8"?>
<!-- Generator: Adobe Illustrator 26.0.1, SVG Export Plug-In . SVG Version: 6.00 Build 0)  -->
<svg version="1.1" id="Layer_1" xmlns="http://www.w3.org/2000/svg" xmlns:xlink="http://www.w3.org/1999/xlink" x="0px" y="0px"
	 viewBox="0 0 80 80" style="enable-background:new 0 0 80 80;" xml:space="preserve">
<style type="text/css">
	.st0{fill:#24C7A4;}
	.st1{fill:none;stroke:#FFFFFF;stroke-width:1.0205;stroke-linecap:round;stroke-linejoin:round;stroke-miterlimit:10;}
	.st2{fill:none;stroke:#FFFFFF;stroke-width:1.0205;stroke-linecap:round;stroke-linejoin:round;stroke-miterlimit:9.9999;}
</style>
<path class="st0" d="M40,80L40,80C17.9,80,0,62.1,0,40l0,0C0,17.9,17.9,0,40,0l0,0c22.1,0,40,17.9,40,40l0,0C80,62.1,62.1,80,40,80z
	"/>
<g>
	<path class="st1" d="M37.3,50.6c-3.4-1.5-9-7.3-10.9-10.5"/>
	<path class="st1" d="M25,57.5c-1.8-1.3-4.3-3.5-5.3-5.1"/>
	<path class="st1" d="M32.9,28.4L16,59.2c0.2,1,0.9,1.7,2,2.2l31-17.2"/>
	<ellipse transform="matrix(0.7071 -0.7071 0.7071 0.7071 -13.5844 39.5722)" class="st2" cx="41" cy="36.2" rx="3.3" ry="11.3"/>
	<path class="st1" d="M31.4,54c-2.8-1.6-6.7-5.1-8.1-7.9"/>
	<path class="st1" d="M38.8,32.4c3.2-4.1,3.4-14.3,1.7-18.2"/>
	<path class="st1" d="M44,39.3c5-4.7,11.4-6.7,17.6-3.1"/>
	<circle class="st1" cx="56.6" cy="26.4" r="1.9"/>
	<circle class="st1" cx="55.7" cy="43.3" r="1.9"/>
	<circle class="st1" cx="47.6" cy="14.6" r="1.9"/>
	<circle class="st1" cx="35.7" cy="20.8" r="1.9"/>
	<path class="st1" d="M40.1,35.5l1.1,0.3c0.7,0.2,1.2-0.5,1-1.1l-0.4-0.8c-0.2-0.5,0.2-1.1,0.7-1.1h1.7c0.6,0,1-0.6,0.8-1.1
		l-0.4-1.1c-0.2-0.6,0.2-1.2,0.8-1.1l1.1,0.1c0.6,0.1,1.1-0.6,0.8-1.1l-0.5-1.1c-0.2-0.6,0.2-1.2,0.8-1.1l1.3,0.1
		c0.6,0,1-0.6,0.8-1.1l-0.4-1c-0.2-0.6,0.2-1.2,0.8-1.1l0.8,0.1c0.6,0.1,1.1-0.6,0.8-1.1l-0.4-1c-0.2-0.6,0.2-1.2,0.8-1.1l1.2,0.1
		c0.6,0.1,1.1-0.6,0.8-1.2l-0.6-1.1c-0.3-0.5,0.1-1.2,0.7-1.2l1.8-0.1c0.6,0,1-0.8,0.6-1.3l-1-1.4c-0.2-0.3-0.2-0.7,0-0.9l0.3-0.5"
		/>
	<path class="st1" d="M39.8,62.2c-2.4,1.2-4.2,3-5.3,5.3c-1.3-2.3-3.1-4-5.3-5.3c2.3-1.2,4.1-3,5.3-5.3
		C35.9,59.1,37.7,60.8,39.8,62.2z"/>
	<path class="st1" d="M21.8,37.9c-1.6,0.8-2.9,2-3.6,3.6c-0.9-1.6-2.1-2.7-3.6-3.6c1.6-0.8,2.8-2,3.6-3.6
		C19.2,35.8,20.4,37,21.8,37.9z"/>
	<g>
		<line class="st1" x1="49.5" y1="52.4" x2="49.5" y2="50.6"/>
		<line class="st1" x1="49.5" y1="62.1" x2="49.5" y2="60.4"/>
		<line class="st1" x1="45.5" y1="56.4" x2="43.7" y2="56.4"/>
		<line class="st1" x1="55.2" y1="56.4" x2="53.4" y2="56.4"/>
		<line class="st1" x1="46.6" y1="53.6" x2="45.4" y2="52.3"/>
		<line class="st1" x1="53.5" y1="60.4" x2="52.3" y2="59.2"/>
		<line class="st1" x1="46.6" y1="59.2" x2="45.4" y2="60.4"/>
		<line class="st1" x1="53.5" y1="52.3" x2="52.3" y2="53.6"/>
	</g>
	<g>
		<line class="st1" x1="25.6" y1="23.1" x2="25.6" y2="21.8"/>
		<line class="st1" x1="25.6" y1="30.1" x2="25.6" y2="28.9"/>
		<line class="st1" x1="22.7" y1="26" x2="21.4" y2="26"/>
		<line class="st1" x1="29.8" y1="26" x2="28.5" y2="26"/>
		<line class="st1" x1="23.6" y1="23.9" x2="22.7" y2="23"/>
		<line class="st1" x1="28.6" y1="28.9" x2="27.7" y2="28"/>
		<line class="st1" x1="23.6" y1="28" x2="22.7" y2="28.9"/>
		<line class="st1" x1="28.6" y1="23" x2="27.7" y2="23.9"/>
	</g>
	<path class="st1" d="M43.7,45.1c-2.1-1.2-4.3-3-6.5-5.2"/>
</g>
</svg>
