<?xml version="1.0" encoding="utf-8"?>
<!-- Generator: Adobe Illustrator 26.0.1, SVG Export Plug-In . SVG Version: 6.00 Build 0)  -->
<svg version="1.1" id="Layer_1" xmlns="http://www.w3.org/2000/svg" xmlns:xlink="http://www.w3.org/1999/xlink" x="0px" y="0px"
	 viewBox="0 0 80 80" style="enable-background:new 0 0 80 80;" xml:space="preserve">
<style type="text/css">
	.st0{fill:none;stroke:#010101;stroke-linecap:round;stroke-linejoin:round;stroke-miterlimit:10;}
</style>
<g>
	<path class="st0" d="M35.4,27.02L15.58,63.01c0.24,1.15,1,2.02,2.37,2.56l36.17-20.04"/>
	
		<ellipse transform="matrix(0.7071 -0.7071 0.7071 0.7071 -12.4815 42.2651)" class="st0" cx="44.78" cy="36.2" rx="3.83" ry="13.2"/>
	<path class="st0" d="M40.53,53.06c-3.95-1.78-10.54-8.56-12.72-12.27"/>
	<path class="st0" d="M33.54,56.93c-3.27-1.91-7.88-5.96-9.52-9.26"/>
	<path class="st0" d="M26.13,61.04c-2.11-1.51-5.04-4.09-6.17-5.99"/>
	<path class="st0" d="M42.2,31.76c3.75-4.83,3.94-16.76,1.97-21.3"/>
	<path class="st0" d="M48.33,39.82c5.8-5.5,13.29-7.86,20.59-3.62"/>
	<circle class="st0" cx="63" cy="24.76" r="2.27"/>
	<circle class="st0" cx="61.95" cy="44.51" r="2.27"/>
	<circle class="st0" cx="52.55" cy="10.95" r="2.27"/>
	<circle class="st0" cx="38.64" cy="18.15" r="2.27"/>
	<path class="st0" d="M43.8,35.32l1.24,0.35c0.77,0.21,1.44-0.55,1.13-1.29l-0.41-0.97c-0.27-0.63,0.19-1.32,0.88-1.32h1.98
		c0.67,0,1.13-0.67,0.89-1.3l-0.51-1.32c-0.26-0.67,0.28-1.37,0.99-1.29l1.34,0.15c0.73,0.08,1.27-0.66,0.97-1.33l-0.58-1.31
		c-0.29-0.65,0.21-1.37,0.92-1.33l1.57,0.08c0.7,0.04,1.2-0.67,0.93-1.32l-0.51-1.22c-0.28-0.66,0.25-1.39,0.97-1.32l0.92,0.09
		c0.72,0.07,1.25-0.65,0.97-1.32l-0.49-1.16c-0.28-0.66,0.25-1.38,0.97-1.32l1.4,0.13c0.76,0.07,1.29-0.74,0.92-1.4l-0.68-1.23
		c-0.34-0.62,0.09-1.38,0.79-1.41l2.09-0.1c0.75-0.03,1.17-0.88,0.73-1.5l-1.18-1.69c-0.23-0.33-0.23-0.76,0-1.09l0.41-0.59"/>
	<path class="st0" d="M43.42,66.56c-2.82,1.4-4.91,3.46-6.22,6.22c-1.55-2.67-3.66-4.71-6.22-6.22c2.75-1.4,4.79-3.5,6.22-6.22
		C38.82,62.91,40.9,64.98,43.42,66.56z"/>
	<path class="st0" d="M22.39,38.2c-1.92,0.95-3.34,2.35-4.23,4.23c-1.05-1.81-2.48-3.2-4.23-4.23c1.87-0.95,3.25-2.38,4.23-4.23
		C19.27,35.71,20.68,37.12,22.39,38.2z"/>
	<g>
		<line class="st0" x1="54.7" y1="55.1" x2="54.7" y2="53.06"/>
		<line class="st0" x1="54.7" y1="66.46" x2="54.7" y2="64.43"/>
		<line class="st0" x1="50.03" y1="59.76" x2="48" y2="59.76"/>
		<line class="st0" x1="61.4" y1="59.76" x2="59.36" y2="59.76"/>
		<line class="st0" x1="51.4" y1="56.47" x2="49.96" y2="55.03"/>
		<line class="st0" x1="59.44" y1="64.5" x2="57.99" y2="63.06"/>
		<line class="st0" x1="51.4" y1="63.06" x2="49.96" y2="64.5"/>
		<line class="st0" x1="59.44" y1="55.03" x2="57.99" y2="56.47"/>
	</g>
	<g>
		<line class="st0" x1="26.82" y1="20.81" x2="26.82" y2="19.33"/>
		<line class="st0" x1="26.82" y1="29.07" x2="26.82" y2="27.59"/>
		<line class="st0" x1="23.43" y1="24.2" x2="21.95" y2="24.2"/>
		<line class="st0" x1="31.69" y1="24.2" x2="30.21" y2="24.2"/>
		<line class="st0" x1="24.42" y1="21.81" x2="23.37" y2="20.76"/>
		<line class="st0" x1="30.26" y1="27.65" x2="29.21" y2="26.6"/>
		<line class="st0" x1="24.42" y1="26.6" x2="23.37" y2="27.65"/>
		<line class="st0" x1="30.26" y1="20.76" x2="29.21" y2="21.81"/>
	</g>
	<path class="st0" d="M48,46.64c-2.43-1.44-5.08-3.5-7.61-6.04"/>
</g>
</svg>
