<?xml version="1.0" encoding="utf-8"?>
<!-- Generator: Adobe Illustrator 26.0.1, SVG Export Plug-In . SVG Version: 6.00 Build 0)  -->
<svg version="1.1" id="Layer_1" xmlns="http://www.w3.org/2000/svg" xmlns:xlink="http://www.w3.org/1999/xlink" x="0px" y="0px"
	 viewBox="0 0 80 80" style="enable-background:new 0 0 80 80;" xml:space="preserve">
<style type="text/css">
	.st0{fill:#24C7A4;}
	.st1{fill:none;stroke:#FFFFFF;stroke-width:1.0205;stroke-linecap:round;stroke-linejoin:round;stroke-miterlimit:10;}
</style>
<path class="st0" d="M40,80L40,80C17.9,80,0,62.1,0,40l0,0C0,17.9,17.9,0,40,0l0,0c22.1,0,40,17.9,40,40l0,0C80,62.1,62.1,80,40,80z
	"/>
<g>
	<path class="st1" d="M49.2,38.4h3.3c0.2,0,0.4-0.1,0.4-0.3l1.9-8.2c0.1-0.3-0.1-0.5-0.4-0.5h-7.2c-0.3,0-0.5,0.3-0.4,0.5l1.9,8.2
		C48.8,38.2,49,38.4,49.2,38.4z"/>
	<path class="st1" d="M45.7,29.4h10.2c0.2,0,0.4-0.2,0.4-0.4v-2c0-0.2-0.2-0.4-0.4-0.4H45.7c-0.2,0-0.4,0.2-0.4,0.4v1.9
		C45.3,29.2,45.5,29.4,45.7,29.4z"/>
	<path class="st1" d="M54.2,41.3h-6.6c-0.2,0-0.4-0.2-0.4-0.4v-2.1c0-0.2,0.2-0.4,0.4-0.4h6.6c0.2,0,0.4,0.2,0.4,0.4v2.1
		C54.6,41.1,54.4,41.3,54.2,41.3z"/>
	<path class="st1" d="M53.4,59.1c0-1.5-1.2-2.7-2.7-2.7c-0.5,0-1,0.2-1.5,0.4"/>
	<path class="st1" d="M47.9,59L47.9,59c0,1.6,1.2,2.8,2.7,2.8c0.4,0,0.7-0.1,1.1-0.2"/>
	<path class="st1" d="M33,59.1c0-1.5-1.2-2.7-2.7-2.7c-0.5,0-1,0.2-1.5,0.4"/>
	<path class="st1" d="M27.6,58.7c0,0.1,0,0.3,0,0.4c0,1.5,1.2,2.7,2.7,2.7c0.5,0,1-0.2,1.5-0.4"/>
	<path class="st1" d="M64.6,57h1.5c0.2,0,0.4-0.2,0.4-0.4v-12c0-0.2-0.2-0.4-0.4-0.4h-1.5c-0.2,0-0.4,0.2-0.4,0.4v11.9
		C64.2,56.8,64.4,57,64.6,57z"/>
	<path class="st1" d="M62.1,61.6h1.3c0.5,0,0.9-0.4,0.9-0.9V40.4c0-0.5-0.4-0.9-0.9-0.9h-1.3c-0.5,0-0.9,0.4-0.9,0.9v20.4
		C61.2,61.2,61.6,61.6,62.1,61.6z"/>
	<line class="st1" x1="35.9" y1="60" x2="45" y2="60"/>
	<path class="st1" d="M56.3,60h4.4c0.2,0,0.4-0.2,0.4-0.4V44.2c0-0.2-0.2-0.4-0.4-0.4H19.3c-0.2,0-0.4,0.2-0.4,0.4v15.4
		c0,0.2,0.2,0.4,0.4,0.4h5.3"/>
	<path class="st1" d="M60.8,43.7H19.3c-0.2,0-0.4-0.2-0.4-0.4v-1.6c0-0.2,0.2-0.4,0.4-0.4h41.5c0.2,0,0.4,0.2,0.4,0.4v1.6
		C61.2,43.5,61,43.7,60.8,43.7z"/>
	<path class="st1" d="M39.8,59.9c0-0.3,0-0.6,0-0.8c0-5.3-4.3-9.6-9.6-9.6s-9.6,4.3-9.6,9.6c0,0.3,0,0.6,0,0.9"/>
	<path class="st1" d="M19.3,19.5h20.6c0.2,0,0.4,0.2,0.4,0.4v21c0,0.2-0.2,0.4-0.4,0.4H19.3c-0.2,0-0.4-0.2-0.4-0.4V20
		C18.9,19.7,19,19.5,19.3,19.5z"/>
	<path class="st1" d="M44,19.5H19.3c-0.2,0-0.4-0.2-0.4-0.4v-2c0-0.2,0.2-0.4,0.4-0.4H44c0.2,0,0.4,0.2,0.4,0.4v2
		C44.4,19.3,44.2,19.5,44,19.5z"/>
	<path class="st1" d="M23.6,36.5h11.9c0.2,0,0.4-0.2,0.4-0.4V24.2c0-0.2-0.2-0.4-0.4-0.4H23.6c-0.2,0-0.4,0.2-0.4,0.4v11.9
		C23.2,36.3,23.4,36.5,23.6,36.5z"/>
	<polyline class="st1" points="33.5,32.2 33.5,26 32,26 	"/>
	<line class="st1" x1="29.8" y1="26" x2="27.2" y2="26"/>
	<circle class="st1" cx="30.3" cy="59.1" r="5.7"/>
	<circle class="st1" cx="50.7" cy="59.1" r="5.7"/>
</g>
</svg>
