<?xml version="1.0" encoding="utf-8"?>
<!-- Generator: Adobe Illustrator 26.0.1, SVG Export Plug-In . SVG Version: 6.00 Build 0)  -->
<svg version="1.1" id="Layer_1" xmlns="http://www.w3.org/2000/svg" xmlns:xlink="http://www.w3.org/1999/xlink" x="0px" y="0px"
	 viewBox="0 0 80 80" style="enable-background:new 0 0 80 80;" xml:space="preserve">
<style type="text/css">
	.st0{fill:none;stroke:#010101;stroke-width:1.1813;stroke-linecap:round;stroke-linejoin:round;stroke-miterlimit:10;}
</style>
<g>
	<path class="st0" d="M55.39,65.72c0-1.96-1.59-3.55-3.55-3.55c-0.69,0-1.34,0.2-1.89,0.54"/>
	<path class="st0" d="M48.29,65.54c0,0.06,0,0.12,0,0.18c0,1.96,1.59,3.55,3.55,3.55c0.49,0,0.96-0.1,1.39-0.28"/>
	<circle class="st0" cx="51.84" cy="65.72" r="7.38"/>
	<path class="st0" d="M28.88,65.72c0-1.96-1.59-3.55-3.55-3.55c-0.7,0-1.34,0.2-1.89,0.55"/>
	<path class="st0" d="M21.83,65.18c-0.03,0.18-0.04,0.36-0.04,0.55c0,1.96,1.59,3.55,3.55,3.55c0.7,0,1.36-0.2,1.91-0.56"/>
	<circle class="st0" cx="25.34" cy="65.72" r="7.38"/>
	<path class="st0" d="M69.99,62.96h1.89c0.3,0,0.55-0.24,0.55-0.55V46.89c0-0.3-0.24-0.55-0.55-0.55h-1.89
		c-0.3,0-0.55,0.24-0.55,0.55v15.52C69.44,62.71,69.69,62.96,69.99,62.96z"/>
	<path class="st0" d="M66.65,68.99h1.68c0.61,0,1.11-0.5,1.11-1.11V41.42c0-0.62-0.5-1.11-1.11-1.11h-1.68
		c-0.62,0-1.11,0.5-1.11,1.11v26.45C65.54,68.49,66.04,68.99,66.65,68.99z"/>
	<line class="st0" x1="32.72" y1="66.86" x2="44.45" y2="66.86"/>
	<path class="st0" d="M59.22,66.86h5.77c0.3,0,0.55-0.24,0.55-0.55V46.32c0-0.3-0.24-0.55-0.55-0.55H11.06
		c-0.3,0-0.55,0.24-0.55,0.55v19.99c0,0.3,0.24,0.55,0.55,0.55h6.89"/>
	<path class="st0" d="M64.99,45.78H11.06c-0.3,0-0.55-0.24-0.55-0.55V43.2c0-0.3,0.24-0.55,0.55-0.55h53.93
		c0.3,0,0.55,0.24,0.55,0.55v2.03C65.54,45.53,65.29,45.78,64.99,45.78z"/>
	<path class="st0" d="M37.78,66.82c0.03-0.37,0.05-0.73,0.05-1.1c0-6.85-5.64-12.49-12.49-12.49s-12.49,5.64-12.49,12.49
		c0,0.38,0.02,0.76,0.05,1.13"/>
	<path class="st0" d="M11.06,14.33h26.81c0.3,0,0.55,0.24,0.55,0.55v27.23c0,0.3-0.24,0.55-0.55,0.55H11.06
		c-0.3,0-0.55-0.24-0.55-0.55V14.87C10.52,14.57,10.76,14.33,11.06,14.33z"/>
	<path class="st0" d="M43.13,14.33H11.06c-0.3,0-0.55-0.24-0.55-0.55v-2.6c0-0.3,0.24-0.55,0.55-0.55h32.06
		c0.3,0,0.55,0.24,0.55,0.55v2.6C43.67,14.08,43.43,14.33,43.13,14.33z"/>
	<path class="st0" d="M16.66,36.39h15.51c0.3,0,0.55-0.24,0.55-0.55V20.34c0-0.3-0.24-0.55-0.55-0.55H16.66
		c-0.3,0-0.55,0.24-0.55,0.55v15.51C16.12,36.15,16.36,36.39,16.66,36.39z"/>
	<path class="st0" d="M56.4,42.65h-8.56c-0.3,0-0.55-0.24-0.55-0.55v-2.74c0-0.3,0.24-0.55,0.55-0.55h8.56
		c0.3,0,0.55,0.24,0.55,0.55v2.74C56.95,42.41,56.7,42.65,56.4,42.65z"/>
	<path class="st0" d="M45.42,27.1h13.25c0.3,0,0.55-0.24,0.55-0.55v-2.53c0-0.3-0.24-0.55-0.55-0.55H45.42
		c-0.3,0-0.55,0.24-0.55,0.55v2.53C44.88,26.86,45.12,27.1,45.42,27.1z"/>
	<path class="st0" d="M49.95,38.82h4.35c0.25,0,0.47-0.18,0.53-0.43l2.52-10.6c0.08-0.35-0.18-0.69-0.53-0.69h-9.38
		c-0.35,0-0.61,0.34-0.53,0.69l2.52,10.6C49.48,38.64,49.69,38.82,49.95,38.82z"/>
	<polyline class="st0" points="29.54,30.75 29.54,22.74 27.56,22.74 	"/>
	<line class="st0" x1="24.77" y1="22.74" x2="21.36" y2="22.74"/>
</g>
</svg>
