<?xml version="1.0" encoding="utf-8"?>
<!-- Generator: Adobe Illustrator 26.0.1, SVG Export Plug-In . SVG Version: 6.00 Build 0)  -->
<svg version="1.1" id="Layer_1" xmlns="http://www.w3.org/2000/svg" xmlns:xlink="http://www.w3.org/1999/xlink" x="0px" y="0px"
	 viewBox="0 0 2682.24 513.08" style="enable-background:new 0 0 2682.24 513.08;" xml:space="preserve">
<style type="text/css">
	.st0{fill:#023047;}
</style>
<path class="st0" d="M286.54,34.04l62.2,126.03c2.73,5.53,8,9.36,14.1,10.25l139.08,20.21c15.36,2.23,21.5,21.11,10.38,31.95
	l-100.64,98.1c-4.41,4.3-6.43,10.5-5.39,16.58l23.76,138.52c2.62,15.3-13.44,26.97-27.18,19.75l-124.4-65.4
	c-5.46-2.87-11.98-2.87-17.43,0l-124.4,65.4c-13.74,7.22-29.8-4.44-27.18-19.75l23.76-138.52c1.04-6.08-0.97-12.28-5.39-16.58
	l-100.64-98.1c-11.12-10.84-4.98-29.72,10.38-31.95l139.08-20.21c6.1-0.89,11.38-4.72,14.1-10.25l62.2-126.03
	C259.81,20.11,279.67,20.11,286.54,34.04z"/>
<path class="st0" d="M822.71,34.04l62.2,126.03c2.73,5.53,8,9.36,14.1,10.25l139.08,20.21c15.36,2.23,21.5,21.11,10.38,31.95
	l-100.64,98.1c-4.41,4.3-6.43,10.5-5.39,16.58l23.76,138.52c2.62,15.3-13.44,26.97-27.18,19.75l-124.4-65.4
	c-5.46-2.87-11.98-2.87-17.43,0l-124.4,65.4c-13.74,7.22-29.8-4.44-27.18-19.75l23.76-138.52c1.04-6.08-0.97-12.28-5.39-16.58
	l-100.64-98.1c-11.12-10.84-4.98-29.72,10.38-31.95l139.08-20.21c6.1-0.89,11.38-4.72,14.1-10.25l62.2-126.03
	C795.98,20.11,815.84,20.11,822.71,34.04z"/>
<path class="st0" d="M1358.88,34.04l62.2,126.03c2.73,5.53,8,9.36,14.1,10.25l139.08,20.21c15.36,2.23,21.5,21.11,10.38,31.95
	L1484,320.57c-4.41,4.3-6.43,10.5-5.39,16.58l23.76,138.52c2.62,15.3-13.44,26.97-27.18,19.75l-124.4-65.4
	c-5.46-2.87-11.98-2.87-17.43,0l-124.4,65.4c-13.74,7.22-29.8-4.44-27.18-19.75l23.76-138.52c1.04-6.08-0.97-12.28-5.39-16.58
	l-100.64-98.1c-11.12-10.84-4.98-29.72,10.38-31.95l139.08-20.21c6.1-0.89,11.38-4.72,14.1-10.25l62.2-126.03
	C1332.15,20.11,1352.01,20.11,1358.88,34.04z"/>
<path class="st0" d="M1895.05,34.04l62.2,126.03c2.73,5.53,8,9.36,14.1,10.25l139.08,20.21c15.36,2.23,21.5,21.11,10.38,31.95
	l-100.64,98.1c-4.41,4.3-6.43,10.5-5.39,16.58l23.76,138.52c2.62,15.3-13.44,26.97-27.18,19.75l-124.4-65.4
	c-5.46-2.87-11.98-2.87-17.43,0l-124.4,65.4c-13.74,7.22-29.8-4.44-27.18-19.75l23.76-138.52c1.04-6.08-0.97-12.28-5.39-16.58
	l-100.64-98.1c-11.12-10.84-4.98-29.72,10.38-31.95l139.08-20.21c6.1-0.89,11.38-4.72,14.1-10.25l62.2-126.03
	C1868.32,20.11,1888.18,20.11,1895.05,34.04z"/>
<path class="st0" d="M2431.22,34.04l62.2,126.03c2.73,5.53,8,9.36,14.1,10.25l139.08,20.21c15.36,2.23,21.5,21.11,10.38,31.95
	l-100.64,98.1c-4.42,4.3-6.43,10.5-5.39,16.58l23.76,138.52c2.62,15.3-13.44,26.97-27.18,19.75l-124.4-65.4
	c-5.46-2.87-11.98-2.87-17.43,0l-124.4,65.4c-13.74,7.22-29.8-4.44-27.18-19.75l23.76-138.52c1.04-6.08-0.97-12.28-5.39-16.58
	l-100.64-98.1c-11.12-10.84-4.98-29.72,10.38-31.95l139.08-20.21c6.1-0.89,11.38-4.72,14.1-10.25l62.2-126.03
	C2404.49,20.11,2424.35,20.11,2431.22,34.04z"/>
</svg>
