<?xml version="1.0" encoding="utf-8"?>
<!-- Generator: Adobe Illustrator 26.0.1, SVG Export Plug-In . SVG Version: 6.00 Build 0)  -->
<svg version="1.1" id="Layer_1" xmlns="http://www.w3.org/2000/svg" xmlns:xlink="http://www.w3.org/1999/xlink" x="0px" y="0px"
	 viewBox="0 0 700.81 697.53" style="enable-background:new 0 0 700.81 697.53;" xml:space="preserve">
<style type="text/css">
	<!-- .st0{fill:#009DD8;} -->
</style>
<g>
	<path class="st0" d="M486.14,402.87c-16.02,0-29,12.98-29,29v131.85H354.19V140.99c0-13.59-8.83-25.61-21.8-29.67l-67.66-21.18
		h192.42v130.32c0,16.02,12.98,29,29,29s29-12.98,29-29V61.14c0-16.02-12.98-29-29-29H60.27c-16.02,0-29,12.98-29,29v531.57
		c0,16.02,12.98,29,29,29h11.8c3.72,2.95,8.16,5.08,13.07,6.08l231.74,47.31c19.27,3.93,37.3-10.79,37.3-30.46v-22.93h131.96
		c16.02,0,29-12.98,29-29V431.87C515.14,415.85,502.16,402.87,486.14,402.87z"/>
	<path class="st0" d="M667.01,346.41c0.09-0.1,0.17-0.2,0.26-0.3c0.23-0.26,0.45-0.51,0.67-0.77c0.07-0.09,0.14-0.19,0.22-0.28
		c0.23-0.28,0.45-0.56,0.66-0.85c0.04-0.06,0.09-0.12,0.13-0.18c0.24-0.33,0.47-0.66,0.7-0.99c0.01-0.02,0.03-0.04,0.04-0.06
		c2.56-3.84,4.22-8.33,4.7-13.16c0.01-0.06,0.01-0.13,0.01-0.19c0.04-0.41,0.07-0.82,0.09-1.23c0.02-0.48,0.04-0.97,0.04-1.45
		s-0.01-0.97-0.04-1.45c-0.02-0.41-0.05-0.82-0.09-1.23c-0.01-0.06-0.01-0.13-0.01-0.19c-0.48-4.85-2.15-9.34-4.71-13.19
		c-0.01-0.01-0.01-0.02-0.02-0.03c-0.23-0.35-0.48-0.7-0.73-1.04c-0.03-0.05-0.07-0.09-0.1-0.14c-0.23-0.31-0.47-0.61-0.71-0.91
		c-0.06-0.07-0.11-0.15-0.17-0.22c-0.24-0.3-0.5-0.58-0.75-0.87c-0.06-0.07-0.12-0.14-0.18-0.21c-0.32-0.35-0.65-0.7-0.99-1.04
		l-79.55-79.54c-11.33-11.33-29.69-11.33-41.01,0s-11.33,29.69,0,41.01l30.05,30.05H432.7c-16.02,0-29,12.98-29,29s12.98,29,29,29
		h142.82l-30.05,30.05c-11.33,11.33-11.33,29.69,0,41.01c5.66,5.66,13.08,8.49,20.51,8.49c7.42,0,14.84-2.83,20.51-8.49l79.55-79.55
		c0.02-0.02,0.04-0.04,0.06-0.06C666.4,347.06,666.71,346.74,667.01,346.41z"/>
</g>
</svg>
